<?xml version="1.0" encoding="iso-8859-1"?>
<!-- Generator: Adobe Illustrator 19.0.0, SVG Export Plug-In . SVG Version: 6.00 Build 0)  -->
<svg xmlns="http://www.w3.org/2000/svg" xmlns:xlink="http://www.w3.org/1999/xlink" version="1.1" id="Capa_1" x="0px" y="0px" viewBox="0 0 512 512" style="enable-background:new 0 0 512 512;" xml:space="preserve" width="512px" height="512px">
<g>
	<g>
		<path d="M490.667,53.333H448v21.333h42.667v362.667H21.333V74.667H64V53.333H21.333C9.551,53.333,0,62.885,0,74.667v362.667    c0,11.782,9.551,21.333,21.333,21.333h469.333c11.782,0,21.333-9.551,21.333-21.333V74.667    C512,62.885,502.449,53.333,490.667,53.333z" fill="#ff6d00"/>
	</g>
</g>
<g>
	<g>
		<path d="M490.667,437.333V480H21.333v-42.667H0V480c0,11.782,9.551,21.333,21.333,21.333h469.333    c11.782,0,21.333-9.551,21.333-21.333v-42.667H490.667z" fill="#ff6d00"/>
	</g>
</g>
<g>
	<g>
		<path d="M234.667,10.667H64c-5.891,0-10.667,4.776-10.667,10.667v341.333c0,17.673,14.327,32,32,32h149.333    c17.673,0,32-14.327,32-32v-320C266.667,24.994,252.34,10.667,234.667,10.667z M245.333,362.667    c0,5.891-4.776,10.667-10.667,10.667H85.333c-5.891,0-10.667-4.776-10.667-10.667V32h160c5.891,0,10.667,4.776,10.667,10.667    V362.667z" fill="#ff6d00"/>
	</g>
</g>
<g>
	<g>
		<path d="M448,10.667H277.333c-17.673,0-32,14.327-32,32v320c0,17.673,14.327,32,32,32h149.333c17.673,0,32-14.327,32-32V21.333    C458.667,15.442,453.891,10.667,448,10.667z M437.333,362.667c0,5.891-4.776,10.667-10.667,10.667H277.333    c-5.891,0-10.667-4.776-10.667-10.667v-320c0-5.891,4.776-10.667,10.667-10.667h160V362.667z" fill="#ff6d00"/>
	</g>
</g>
<g>
	<g>
		<path d="M202.667,96h-85.333c-5.891,0-10.667,4.776-10.667,10.667v42.667H128v-32h64v32h21.333v-42.667    C213.333,100.776,208.558,96,202.667,96z" fill="#ff6d00"/>
	</g>
</g>
<g>
	<g>
		<rect x="106.667" y="181.333" width="64" height="21.333" fill="#ff6d00"/>
	</g>
</g>
<g>
	<g>
		<rect x="106.667" y="234.667" width="106.667" height="21.333" fill="#ff6d00"/>
	</g>
</g>
<g>
	<g>
		<rect x="106.667" y="288" width="106.667" height="21.333" fill="#ff6d00"/>
	</g>
</g>
<g>
	<g>
		<rect x="298.667" y="96" width="106.667" height="21.333" fill="#ff6d00"/>
	</g>
</g>
<g>
	<g>
		<rect x="298.667" y="149.333" width="106.667" height="21.333" fill="#ff6d00"/>
	</g>
</g>
<g>
	<g>
		<rect x="298.667" y="202.667" width="74.667" height="21.333" fill="#ff6d00"/>
	</g>
</g>
<g>
	<g>
		<path d="M394.667,256h-85.333c-5.891,0-10.667,4.776-10.667,10.667v42.667c0,5.891,4.776,10.667,10.667,10.667h85.333    c5.891,0,10.667-4.776,10.667-10.667v-42.667C405.333,260.776,400.558,256,394.667,256z M384,298.667h-64v-21.333h64V298.667z" fill="#ff6d00"/>
	</g>
</g>
<g>
</g>
<g>
</g>
<g>
</g>
<g>
</g>
<g>
</g>
<g>
</g>
<g>
</g>
<g>
</g>
<g>
</g>
<g>
</g>
<g>
</g>
<g>
</g>
<g>
</g>
<g>
</g>
<g>
</g>
</svg>
