<?xml version="1.0" encoding="iso-8859-1"?>
<!-- Generator: Adobe Illustrator 19.0.0, SVG Export Plug-In . SVG Version: 6.00 Build 0)  -->
<svg xmlns="http://www.w3.org/2000/svg" xmlns:xlink="http://www.w3.org/1999/xlink" version="1.1" id="Capa_1" x="0px" y="0px" viewBox="0 0 512 512" style="enable-background:new 0 0 512 512;" xml:space="preserve" width="512px" height="512px">
<g>
	<g>
		<path d="M101.681,113.137c-12.772,0-23.164,10.392-23.164,23.164c0,12.773,10.392,23.165,23.164,23.165    c12.773,0,23.165-10.392,23.165-23.165S114.454,113.137,101.681,113.137z M101.681,144.467c-4.503,0-8.165-3.664-8.165-8.166    s3.663-8.165,8.165-8.165c4.503,0,8.166,3.663,8.166,8.165S106.183,144.467,101.681,144.467z" fill="#ff7500"/>
	</g>
</g>
<g>
	<g>
		<path d="M442.702,193.048h-48.197c-4.143,0-7.499,3.357-7.499,7.499s3.357,7.499,7.499,7.499h48.197    c4.143,0,7.499-3.357,7.499-7.499S446.845,193.048,442.702,193.048z" fill="#ff7500"/>
	</g>
</g>
<g>
	<g>
		<path d="M467.415,193.048h-0.136c-4.143,0-7.499,3.357-7.499,7.499s3.357,7.499,7.499,7.499h0.136    c4.143,0,7.499-3.357,7.499-7.499S471.558,193.048,467.415,193.048z" fill="#ff7500"/>
	</g>
</g>
<g>
	<g>
		<path d="M467.415,157.052h-48.198c-4.143,0-7.499,3.357-7.499,7.499s3.357,7.499,7.499,7.499h48.198    c4.143,0,7.499-3.357,7.499-7.499S471.558,157.052,467.415,157.052z" fill="#ff7500"/>
	</g>
</g>
<g>
	<g>
		<path d="M394.641,157.052h-0.136c-4.143,0-7.499,3.357-7.499,7.499s3.357,7.499,7.499,7.499h0.136    c4.143,0,7.499-3.357,7.499-7.499S398.784,157.052,394.641,157.052z" fill="#ff7500"/>
	</g>
</g>
<g>
	<g>
		<path d="M187.542,283.561C188.014,283.384,187.411,283.597,187.542,283.561L187.542,283.561z" fill="#ff7500"/>
	</g>
</g>
<g>
	<g>
		<path d="M494.723,383.919h-10.567c3.781-5.531,5.996-12.213,5.996-19.403V242.536l0.412-0.001    c11.852-0.031,21.468-9.698,21.436-21.55l-0.211-79.783c-0.028-10.846-8.828-19.794-19.896-19.794l-1.741,0.004V90.888    c0-19.011-15.468-34.478-34.479-34.478h-37.068c-4.143,0-7.499,3.357-7.499,7.499s3.357,7.499,7.499,7.499h37.068    c10.741,0,19.48,8.738,19.48,19.479v30.561l-13.031,0.032V99.069c0-8.067-6.563-14.632-14.632-14.632H63.405    c-8.067,0-14.632,6.563-14.632,14.632v257.264c0,8.067,6.563,14.632,14.632,14.632c16.415,0,366.883,0,384.084,0    c8.067,0,14.632-6.563,14.632-14.632V242.606l13.031-0.031v121.939c0,10.234-7.938,18.631-17.977,19.403    c-10.874,0-395.462,0-403.456,0c-10.039-0.772-17.977-9.169-17.977-19.403V90.888c0-10.741,8.739-19.479,19.48-19.479h328.383    c4.143,0,7.499-3.357,7.499-7.499s-3.357-7.499-7.499-7.499H55.224c-19.012,0-34.479,15.468-34.479,34.478v273.628    c0,7.19,2.216,13.872,5.996,19.403h-9.54C7.716,383.919,0,391.655,0,401.164c0,30.01,24.32,54.426,54.214,54.426h29.968    c4.143,0,7.499-3.357,7.499-7.499s-3.357-7.499-7.499-7.499H54.214c-21.623,0-39.216-17.687-39.216-39.428    c0-1.239,0.988-2.247,2.202-2.247c16.491,0.009,122.705,0.068,136.33,0.076v8.367c0,10.969,8.898,19.893,19.837,19.893h115.047    c4.143,0,7.499-3.357,7.499-7.499s-3.357-7.499-7.499-7.499H173.368c-2.623,0-4.839-2.241-4.839-4.895v-8.367h174.866v8.367    c0,2.653-2.216,4.895-4.839,4.895h-15.145c-4.143,0-7.499,3.357-7.499,7.499s3.357,7.499,7.499,7.499h15.145    c10.938,0,19.837-8.924,19.837-19.893v-8.367c105.883-0.033,35.048,0.059,136.329-0.076c1.215,0,2.203,1.008,2.203,2.247    c0,21.74-17.592,39.428-39.217,39.428H119.18c-4.143,0-7.499,3.357-7.499,7.499s3.357,7.499,7.499,7.499h338.53    c29.894,0,54.215-24.416,54.215-54.426C511.924,391.655,504.207,383.919,494.723,383.919z M229.647,355.932h-17.665v-16.711    c0-4.143-3.357-7.499-7.499-7.499s-7.499,3.357-7.499,7.499v16.711h-21.474c9.676-53.578,8.122-49.93,9.787-52.507    c1.81-2.8,4.674-4.866,7.758-5.867c3.804-1.217,20.248-7.041,23.955-8.355l5.067,15.557c1.958,6.013,7.912,9.313,13.667,8.436    l3.21,7.904L229.647,355.932z M235.254,296.797l-4.516-13.868c0.101-0.062,2.827-1.732,2.655-1.626l10.053,9.792    C243.346,291.167,234.713,297.174,235.254,296.797z M200.408,221.561c-4.339-0.427-8.577-3.552-8.577-7.948    c0-4.355,4.179-7.505,8.557-7.944C200.385,206.932,200.387,207.729,200.408,221.561z M197.572,190.923    c0.035-8.115-0.043-12.912,2.103-20.717c17.312-62.716,109.759-52.552,113.051,12.384c0.096,1.919,0.088-2.101,0.087,8.33    c-0.935-0.142-1.878-0.231-2.826-0.271l-0.001-6.129c0-5.094-3.832-9.303-8.913-9.793c-9.874-0.953-7.864-10.498-17.233-12.187    c-3.38-0.609-6.821,0.325-9.439,2.563c-16.27,13.908-35.094,14.604-48.015,12.738c-9.917-1.434-19.571,3.766-23.82,12.801    C200.89,190.573,199.219,190.673,197.572,190.923z M315.163,219.653c-1.533,1.081-3.319,1.726-5.175,1.908v-15.896    C318.08,206.461,321.761,215.004,315.163,219.653z M215.407,200.282c0-4.73,4.189-8.267,8.835-7.599    c15.173,2.194,36.995,1.461,56.731-13.617c3.624,4.844,8.432,8.18,14.015,9.731c0.005,34.641,0.021,29.595-0.058,31.185    c-2.492,49.163-75.547,50.503-79.392,1.144C215.345,218.693,215.407,207.378,215.407,200.282z M245.171,355.932l7.432-27.825    h5.168l7.432,27.825H245.171z M248.849,305.612c0.102-0.071,6.762-4.707,6.338-4.412l6.339,4.411l-3.045,7.498h-6.587    L248.849,305.612z M255.365,281.766l-10.261-9.994c6.763,1.162,14.443,1.106,21.729-0.433L255.365,281.766z M278.265,281.216    c0.341,0.211,2.421,1.499,2.289,1.417l-5.315,14.248c-0.295-0.206-3.144-2.188-2.962-2.062l-5.083-3.538L278.265,281.216z     M313.412,355.933v-0.001v-16.711c0-4.143-3.357-7.499-7.499-7.499s-7.499,3.357-7.499,7.499v16.711h-17.685l-9.304-34.832    l3.217-7.922c6.044,0.916,11.69-2.677,13.597-8.234l5.947-15.938c1.215,0.409-1.777-0.641,22.086,7.788    c14.828,5.252,10.866,5.545,20.305,59.139H313.412z M447.123,355.966h-95.346c-6.56-40.309-5.951-37.102-7.424-45.349    c-1.259-7.05-3.602-20.174-18.856-26.586c-0.111-0.047,2.352,0.678-31.359-10.962l-0.008,0.021    c-2.487-0.873,0.094,0.144-9.226-5.406v-3.525c9.76-5.973,17.918-15.157,22.091-27.629c21.513,1.532,34.971-22.057,20.815-37.68    c0.005-17.15,0.035-16.554-0.138-17.62c-2.419-42.084-34.103-64.287-64.559-67.631c-30.609-3.368-66.576,11.603-77.897,52.62    c-3.185,11.573-2.666,19.461-2.648,32.652c-13.82,15.291-1.074,39.438,21.076,37.648c4.722,13.596,13.243,22.999,23.302,28.781    l0.002,2.361c-0.285,0.175-8.85,5.423-8.387,5.139c-26.875,9.384-30.731,10.679-31.018,10.759c-0.001,0-0.001,0-0.001,0    c-6.267,2.342-11.4,6.396-14.843,11.725c-3.862,5.975-2.109,3.575-12.437,60.681H63.772V99.436h383.35v22.081    c-78.95,0.323-76.373-0.134-79.904,0.578c-7.187,1.45-12.99,6.84-15.064,13.734c-1.832,6.034-0.318,8.212-0.547,115.811    c0.025,9.732,11.776,14.931,18.96,8.115c18.673-17.602,17.591-16.974,18.22-16.977l58.334-0.133V355.966z M388.752,227.781    c-9.917,0.026-13.498,8.062-22.168,15.08c0.241-106.61-1.819-102.817,1.896-105.334c0.789-0.534,1.711-0.823,2.672-0.825h-0.001    c0.68-0.002,120.954-0.296,120.793-0.296c2.646,0,4.842,2.189,4.848,4.835l0.211,79.783c0.01,3.582-2.896,6.502-6.477,6.512    L388.752,227.781z" fill="#ff7500"/>
	</g>
</g>
<g>
</g>
<g>
</g>
<g>
</g>
<g>
</g>
<g>
</g>
<g>
</g>
<g>
</g>
<g>
</g>
<g>
</g>
<g>
</g>
<g>
</g>
<g>
</g>
<g>
</g>
<g>
</g>
<g>
</g>
</svg>
